<mxfile host="app.diagrams.net" modified="2020-12-30T11:59:34.280Z" agent="5.0 (Windows NT 10.0; Win64; x64) AppleWebKit/537.36 (KHTML, like Gecko) Chrome/87.0.4280.88 Safari/537.36" etag="8DfGMa8zKMqGuUw06mF9" version="14.1.3" type="github">
  <diagram id="kgpKYQtTHZ0yAKxKKP6v" name="Page-1">
    <mxGraphModel dx="1044" dy="613" grid="1" gridSize="10" guides="1" tooltips="1" connect="1" arrows="1" fold="1" page="1" pageScale="1" pageWidth="800" pageHeight="400" math="0" shadow="0">
      <root>
        <mxCell id="0" />
        <mxCell id="1" parent="0" />
        <mxCell id="3M6XWh_9uGLC3JHwlLZp-1" value="حذف رستوران" style="shape=note;whiteSpace=wrap;html=1;size=14;verticalAlign=top;align=left;spacingTop=-6;rounded=0;shadow=0;comic=0;labelBackgroundColor=none;strokeWidth=1;fontFamily=Verdana;fontSize=12" vertex="1" parent="1">
          <mxGeometry width="100" height="35" as="geometry" />
        </mxCell>
        <mxCell id="3M6XWh_9uGLC3JHwlLZp-2" value="فروشنده" style="shape=umlActor;verticalLabelPosition=bottom;verticalAlign=top;html=1;outlineConnect=0;" vertex="1" parent="1">
          <mxGeometry x="107" y="155" width="30" height="60" as="geometry" />
        </mxCell>
        <mxCell id="3M6XWh_9uGLC3JHwlLZp-4" value="ادمین" style="rounded=1;whiteSpace=wrap;html=1;" vertex="1" parent="1">
          <mxGeometry x="573" y="145" width="120" height="60" as="geometry" />
        </mxCell>
        <mxCell id="3M6XWh_9uGLC3JHwlLZp-5" value="&lt;span style=&quot;color: rgba(0 , 0 , 0 , 0) ; font-family: monospace ; font-size: 0px ; background-color: rgb(248 , 249 , 250)&quot;&gt;%3CmxGraphModel%3E%3Croot%3E%3CmxCell%20id%3D%220%22%2F%3E%3CmxCell%20id%3D%221%22%20parent%3D%220%22%2F%3E%3CmxCell%20id%3D%222%22%20value%3D%22%22%20style%3D%22endArrow%3Dnone%3Bhtml%3D1%3BexitX%3D1%3BexitY%3D0.5%3BexitDx%3D0%3BexitDy%3D0%3BentryX%3D0%3BentryY%3D0.5%3BentryDx%3D0%3BentryDy%3D0%3B%22%20edge%3D%221%22%20parent%3D%221%22%3E%3CmxGeometry%20width%3D%2250%22%20height%3D%2250%22%20relative%3D%221%22%20as%3D%22geometry%22%3E%3CmxPoint%20x%3D%22434.0000000000002%22%20y%3D%22240%22%20as%3D%22sourcePoint%22%2F%3E%3CmxPoint%20x%3D%22683.9999999999998%22%20y%3D%22240%22%20as%3D%22targetPoint%22%2F%3E%3C%2FmxGeometry%3E%3C%2FmxCell%3E%3C%2Froot%3E%3C%2FmxGraphModel%3E&lt;/span&gt;" style="endArrow=none;html=1;exitX=1;exitY=0.3333333333333333;exitDx=0;exitDy=0;entryX=0;entryY=0.5;entryDx=0;entryDy=0;exitPerimeter=0;" edge="1" parent="1" source="3M6XWh_9uGLC3JHwlLZp-11" target="3M6XWh_9uGLC3JHwlLZp-4">
          <mxGeometry width="50" height="50" relative="1" as="geometry">
            <mxPoint x="517" y="175" as="sourcePoint" />
            <mxPoint x="717" y="175" as="targetPoint" />
          </mxGeometry>
        </mxCell>
        <mxCell id="3M6XWh_9uGLC3JHwlLZp-6" value="" style="endArrow=classicThin;html=1;strokeWidth=1;endSize=20;entryX=0;entryY=0.5;entryDx=0;entryDy=0;" edge="1" parent="1">
          <mxGeometry width="100" relative="1" as="geometry">
            <mxPoint x="512.9999999999998" y="154.99999999999997" as="sourcePoint" />
            <mxPoint x="542.9999999999998" y="154.99999999999997" as="targetPoint" />
            <Array as="points" />
          </mxGeometry>
        </mxCell>
        <mxCell id="3M6XWh_9uGLC3JHwlLZp-7" value="&lt;span style=&quot;font-family: &amp;#34;verdana&amp;#34;&quot;&gt;2: حذف رستوران ()&lt;/span&gt;" style="text;html=1;align=center;verticalAlign=middle;resizable=0;points=[];autosize=1;" vertex="1" parent="1">
          <mxGeometry x="393" y="145" width="110" height="20" as="geometry" />
        </mxCell>
        <mxCell id="3M6XWh_9uGLC3JHwlLZp-8" value="" style="endArrow=classicThin;html=1;strokeWidth=1;endSize=20;entryX=0;entryY=0.5;entryDx=0;entryDy=0;" edge="1" parent="1">
          <mxGeometry width="100" relative="1" as="geometry">
            <mxPoint x="277" y="155" as="sourcePoint" />
            <mxPoint x="307" y="155" as="targetPoint" />
            <Array as="points" />
          </mxGeometry>
        </mxCell>
        <mxCell id="3M6XWh_9uGLC3JHwlLZp-9" value="&lt;span style=&quot;font-family: &amp;#34;verdana&amp;#34; ; text-align: center&quot;&gt;1: درخواست حذف رستوران&lt;/span&gt;" style="text;whiteSpace=wrap;html=1;" vertex="1" parent="1">
          <mxGeometry x="141" y="140" width="142" height="30" as="geometry" />
        </mxCell>
        <mxCell id="3M6XWh_9uGLC3JHwlLZp-10" value="&lt;span style=&quot;color: rgba(0 , 0 , 0 , 0) ; font-family: monospace ; font-size: 0px ; background-color: rgb(248 , 249 , 250)&quot;&gt;%3CmxGraphModel%3E%3Croot%3E%3CmxCell%20id%3D%220%22%2F%3E%3CmxCell%20id%3D%221%22%20parent%3D%220%22%2F%3E%3CmxCell%20id%3D%222%22%20value%3D%22%22%20style%3D%22endArrow%3Dnone%3Bhtml%3D1%3BexitX%3D1%3BexitY%3D0.5%3BexitDx%3D0%3BexitDy%3D0%3BentryX%3D0%3BentryY%3D0.5%3BentryDx%3D0%3BentryDy%3D0%3B%22%20edge%3D%221%22%20parent%3D%221%22%3E%3CmxGeometry%20width%3D%2250%22%20height%3D%2250%22%20relative%3D%221%22%20as%3D%22geometry%22%3E%3CmxPoint%20x%3D%22434.0000000000002%22%20y%3D%22240%22%20as%3D%22sourcePoint%22%2F%3E%3CmxPoint%20x%3D%22683.9999999999998%22%20y%3D%22240%22%20as%3D%22targetPoint%22%2F%3E%3C%2FmxGeometry%3E%3C%2FmxCell%3E%3C%2Froot%3E%3C%2FmxGraphModel%3E&lt;/span&gt;" style="endArrow=none;html=1;exitX=1;exitY=0.3333333333333333;exitDx=0;exitDy=0;entryX=0;entryY=0.3333333333333333;entryDx=0;entryDy=0;exitPerimeter=0;entryPerimeter=0;" edge="1" parent="1" source="3M6XWh_9uGLC3JHwlLZp-2" target="3M6XWh_9uGLC3JHwlLZp-11">
          <mxGeometry width="50" height="50" relative="1" as="geometry">
            <mxPoint x="527.0000000000002" y="185" as="sourcePoint" />
            <mxPoint x="397" y="175" as="targetPoint" />
          </mxGeometry>
        </mxCell>
        <mxCell id="3M6XWh_9uGLC3JHwlLZp-11" value="ادمین" style="shape=umlActor;verticalLabelPosition=bottom;verticalAlign=top;html=1;outlineConnect=0;" vertex="1" parent="1">
          <mxGeometry x="333" y="155" width="30" height="60" as="geometry" />
        </mxCell>
      </root>
    </mxGraphModel>
  </diagram>
</mxfile>
